<svg width="128" height="128" viewBox="0 0 128 128" fill="none" xmlns="http://www.w3.org/2000/svg">
<rect width="128" height="128" rx="30" fill="#22C55E"/>
<path d="M36.8695 96.056C28.7095 96.056 24.1975 92.408 21.3175 92.408C19.3015 92.408 18.3415 94.136 17.7655 95.576H16.2295V74.264H17.9575C19.7815 85.784 27.4615 92.504 36.3895 92.504C44.4535 92.504 48.2935 88.088 48.2935 81.848C48.2935 74.744 43.3015 72.248 36.3895 68.216L27.4615 62.936C19.7815 58.424 15.9415 52.568 15.9415 46.52C15.9415 36.536 23.5255 30.296 34.2775 30.296C42.0535 30.296 45.0295 32.984 48.0055 32.984C49.6375 32.984 50.5975 32.216 51.2695 30.488H52.9975V50.936H51.0775C49.7335 41.24 43.1095 33.848 33.9895 33.848C27.7495 33.848 23.5255 37.4 23.5255 43.16C23.5255 48.248 28.2295 51.992 33.7015 55.16L43.4935 60.92C52.2295 66.104 56.8375 70.904 56.8375 78.68C56.8375 89.048 48.3895 96.056 36.8695 96.056ZM81.952 41.048L95.2 78.776L108.064 41.048C110.08 35 107.776 33.176 101.824 33.176V31.448H120.64V33.176C116.896 33.56 114.112 36.248 112.288 41.624L93.664 95.864H92.128L72.928 41.144C70.912 35.384 67.84 33.176 64.96 33.176V31.448H88.192V33.176C82.24 33.176 79.84 35 81.952 41.048Z" fill="white"/>
</svg>
